<svg xmlns="http://www.w3.org/2000/svg" width="300" height="300" viewBox="0 0 300 300"><defs><clipPath id="clip-path-dot-color-43"><path d="M 83 20v 7h 3.5a 3.5 3.5, 0, 0, 0, 0 -7" transform="rotate(180,86.5,23.5)"/><rect x="90" y="20" width="7" height="7" transform="rotate(0,93.5,23.5)"/><path d="M 97 20v 7h 3.5a 3.5 3.5, 0, 0, 0, 0 -7" transform="rotate(0,100.5,23.5)"/><circle cx="114.5" cy="23.5" r="3.5" transform="rotate(0,114.5,23.5)"/><path d="M 132 20v 7h 3.5a 3.5 3.5, 0, 0, 0, 0 -7" transform="rotate(-90,135.5,23.5)"/><path d="M 153 20v 7h 3.5a 3.5 3.5, 0, 0, 0, 0 -7" transform="rotate(180,156.5,23.5)"/><rect x="160" y="20" width="7" height="7" transform="rotate(0,163.5,23.5)"/><path d="M 167 20v 7h 3.5a 3.5 3.5, 0, 0, 0, 0 -7" transform="rotate(0,170.5,23.5)"/><circle cx="184.5" cy="23.5" r="3.5" transform="rotate(0,184.5,23.5)"/><path d="M 202 20v 7h 7a 7 7, 0, 0, 0, -7 -7" transform="rotate(-90,205.5,23.5)"/><rect x="209" y="20" width="7" height="7" transform="rotate(0,212.5,23.5)"/><path d="M 216 20v 7h 7a 7 7, 0, 0, 0, -7 -7" transform="rotate(0,219.5,23.5)"/><circle cx="79.5" cy="30.5" r="3.5" transform="rotate(0,79.5,30.5)"/><rect x="90" y="27" width="7" height="7" transform="rotate(0,93.5,30.5)"/><path d="M 132 27v 7h 7a 7 7, 0, 0, 0, -7 -7" transform="rotate(180,135.5,30.5)"/><path d="M 139 27v 7h 7a 7 7, 0, 0, 0, -7 -7" transform="rotate(0,142.5,30.5)"/><path d="M 195 27v 7h 3.5a 3.5 3.5, 0, 0, 0, 0 -7" transform="rotate(180,198.5,30.5)"/><rect x="202" y="27" width="7" height="7" transform="rotate(0,205.5,30.5)"/><path d="M 216 27v 7h 3.5a 3.5 3.5, 0, 0, 0, 0 -7" transform="rotate(90,219.5,30.5)"/><path d="M 83 34v 7h 7a 7 7, 0, 0, 0, -7 -7" transform="rotate(-90,86.5,37.5)"/><rect x="90" y="34" width="7" height="7" transform="rotate(0,93.5,37.5)"/><path d="M 104 34v 7h 3.5a 3.5 3.5, 0, 0, 0, 0 -7" transform="rotate(180,107.5,37.5)"/><rect x="111" y="34" width="7" height="7" transform="rotate(0,114.5,37.5)"/><path d="M 118 34v 7h 7a 7 7, 0, 0, 0, -7 -7" transform="rotate(0,121.5,37.5)"/><path d="M 139 34v 7h 3.5a 3.5 3.5, 0, 0, 0, 0 -7" transform="rotate(90,142.5,37.5)"/><circle cx="156.5" cy="37.5" r="3.5" transform="rotate(0,156.5,37.5)"/><path d="M 174 34v 7h 7a 7 7, 0, 0, 0, -7 -7" transform="rotate(-90,177.5,37.5)"/><path d="M 181 34v 7h 3.5a 3.5 3.5, 0, 0, 0, 0 -7" transform="rotate(0,184.5,37.5)"/><rect x="202" y="34" width="7" height="7" transform="rotate(0,205.5,37.5)"/><path d="M 209 34v 7h 7a 7 7, 0, 0, 0, -7 -7" transform="rotate(0,212.5,37.5)"/><path d="M 83 41v 7h 7a 7 7, 0, 0, 0, -7 -7" transform="rotate(180,86.5,44.5)"/><path d="M 90 41v 7h 7a 7 7, 0, 0, 0, -7 -7" transform="rotate(90,93.5,44.5)"/><rect x="118" y="41" width="7" height="7" transform="rotate(0,121.5,44.5)"/><path d="M 132 41v 7h 3.5a 3.5 3.5, 0, 0, 0, 0 -7" transform="rotate(-90,135.5,44.5)"/><circle cx="149.5" cy="44.5" r="3.5" transform="rotate(0,149.5,44.5)"/><path d="M 160 41v 7h 3.5a 3.5 3.5, 0, 0, 0, 0 -7" transform="rotate(180,163.5,44.5)"/><rect x="167" y="41" width="7" height="7" transform="rotate(0,170.5,44.5)"/><path d="M 174 41v 7h 7a 7 7, 0, 0, 0, -7 -7" transform="rotate(90,177.5,44.5)"/><path d="M 195 41v 7h 7a 7 7, 0, 0, 0, -7 -7" transform="rotate(-90,198.5,44.5)"/><rect x="202" y="41" width="7" height="7" transform="rotate(0,205.5,44.5)"/><rect x="209" y="41" width="7" height="7" transform="rotate(0,212.5,44.5)"/><path d="M 216 41v 7h 3.5a 3.5 3.5, 0, 0, 0, 0 -7" transform="rotate(0,219.5,44.5)"/><path d="M 97 48v 7h 3.5a 3.5 3.5, 0, 0, 0, 0 -7" transform="rotate(180,100.5,51.5)"/><rect x="104" y="48" width="7" height="7" transform="rotate(0,107.5,51.5)"/><rect x="111" y="48" width="7" height="7" transform="rotate(0,114.5,51.5)"/><rect x="118" y="48" width="7" height="7" transform="rotate(0,121.5,51.5)"/><path d="M 132 48v 7h 7a 7 7, 0, 0, 0, -7 -7" transform="rotate(180,135.5,51.5)"/><path d="M 139 48v 7h 7a 7 7, 0, 0, 0, -7 -7" transform="rotate(0,142.5,51.5)"/><circle cx="156.5" cy="51.5" r="3.5" transform="rotate(0,156.5,51.5)"/><path d="M 167 48v 7h 3.5a 3.5 3.5, 0, 0, 0, 0 -7" transform="rotate(90,170.5,51.5)"/><path d="M 181 48v 7h 3.5a 3.5 3.5, 0, 0, 0, 0 -7" transform="rotate(180,184.5,51.5)"/><rect x="188" y="48" width="7" height="7" transform="rotate(0,191.5,51.5)"/><rect x="195" y="48" width="7" height="7" transform="rotate(0,198.5,51.5)"/><rect x="202" y="48" width="7" height="7" transform="rotate(0,205.5,51.5)"/><path d="M 209 48v 7h 7a 7 7, 0, 0, 0, -7 -7" transform="rotate(90,212.5,51.5)"/><path d="M 76 55v 7h 7a 7 7, 0, 0, 0, -7 -7" transform="rotate(-90,79.5,58.5)"/><path d="M 83 55v 7h 3.5a 3.5 3.5, 0, 0, 0, 0 -7" transform="rotate(0,86.5,58.5)"/><rect x="104" y="55" width="7" height="7" transform="rotate(0,107.5,58.5)"/><rect x="111" y="55" width="7" height="7" transform="rotate(0,114.5,58.5)"/><rect x="118" y="55" width="7" height="7" transform="rotate(0,121.5,58.5)"/><path d="M 125 55v 7h 3.5a 3.5 3.5, 0, 0, 0, 0 -7" transform="rotate(0,128.5,58.5)"/><path d="M 139 55v 7h 3.5a 3.5 3.5, 0, 0, 0, 0 -7" transform="rotate(90,142.5,58.5)"/><path d="M 160 55v 7h 3.5a 3.5 3.5, 0, 0, 0, 0 -7" transform="rotate(-90,163.5,58.5)"/><rect x="188" y="55" width="7" height="7" transform="rotate(0,191.5,58.5)"/><rect x="195" y="55" width="7" height="7" transform="rotate(0,198.5,58.5)"/><rect x="202" y="55" width="7" height="7" transform="rotate(0,205.5,58.5)"/><path d="M 216 55v 7h 3.5a 3.5 3.5, 0, 0, 0, 0 -7" transform="rotate(-90,219.5,58.5)"/><rect x="76" y="62" width="7" height="7" transform="rotate(0,79.5,65.5)"/><circle cx="93.5" cy="65.5" r="3.5" transform="rotate(0,93.5,65.5)"/><rect x="104" y="62" width="7" height="7" transform="rotate(0,107.5,65.5)"/><path d="M 118 62v 7h 3.5a 3.5 3.5, 0, 0, 0, 0 -7" transform="rotate(90,121.5,65.5)"/><circle cx="135.5" cy="65.5" r="3.5" transform="rotate(0,135.5,65.5)"/><circle cx="149.5" cy="65.5" r="3.5" transform="rotate(0,149.5,65.5)"/><rect x="160" y="62" width="7" height="7" transform="rotate(0,163.5,65.5)"/><circle cx="177.5" cy="65.5" r="3.5" transform="rotate(0,177.5,65.5)"/><rect x="188" y="62" width="7" height="7" transform="rotate(0,191.5,65.5)"/><rect x="202" y="62" width="7" height="7" transform="rotate(0,205.5,65.5)"/><path d="M 216 62v 7h 3.5a 3.5 3.5, 0, 0, 0, 0 -7" transform="rotate(90,219.5,65.5)"/><path d="M 76 69v 7h 3.5a 3.5 3.5, 0, 0, 0, 0 -7" transform="rotate(90,79.5,72.5)"/><path d="M 97 69v 7h 7a 7 7, 0, 0, 0, -7 -7" transform="rotate(-90,100.5,72.5)"/><rect x="104" y="69" width="7" height="7" transform="rotate(0,107.5,72.5)"/><path d="M 111 69v 7h 3.5a 3.5 3.5, 0, 0, 0, 0 -7" transform="rotate(0,114.5,72.5)"/><path d="M 153 69v 7h 3.5a 3.5 3.5, 0, 0, 0, 0 -7" transform="rotate(180,156.5,72.5)"/><rect x="160" y="69" width="7" height="7" transform="rotate(0,163.5,72.5)"/><path d="M 167 69v 7h 7a 7 7, 0, 0, 0, -7 -7" transform="rotate(0,170.5,72.5)"/><rect x="188" y="69" width="7" height="7" transform="rotate(0,191.5,72.5)"/><rect x="202" y="69" width="7" height="7" transform="rotate(0,205.5,72.5)"/><path d="M 48 76v 7h 7a 7 7, 0, 0, 0, -7 -7" transform="rotate(-90,51.5,79.5)"/><rect x="55" y="76" width="7" height="7" transform="rotate(0,58.5,79.5)"/><rect x="62" y="76" width="7" height="7" transform="rotate(0,65.5,79.5)"/><path d="M 69 76v 7h 3.5a 3.5 3.5, 0, 0, 0, 0 -7" transform="rotate(0,72.5,79.5)"/><circle cx="86.5" cy="79.5" r="3.5" transform="rotate(0,86.5,79.5)"/><path d="M 97 76v 7h 7a 7 7, 0, 0, 0, -7 -7" transform="rotate(180,100.5,79.5)"/><path d="M 104 76v 7h 7a 7 7, 0, 0, 0, -7 -7" transform="rotate(90,107.5,79.5)"/><path d="M 118 76v 7h 7a 7 7, 0, 0, 0, -7 -7" transform="rotate(-90,121.5,79.5)"/><path d="M 125 76v 7h 7a 7 7, 0, 0, 0, -7 -7" transform="rotate(0,128.5,79.5)"/><path d="M 139 76v 7h 3.5a 3.5 3.5, 0, 0, 0, 0 -7" transform="rotate(180,142.5,79.5)"/><path d="M 146 76v 7h 3.5a 3.5 3.5, 0, 0, 0, 0 -7" transform="rotate(0,149.5,79.5)"/><path d="M 167 76v 7h 7a 7 7, 0, 0, 0, -7 -7" transform="rotate(180,170.5,79.5)"/><path d="M 174 76v 7h 7a 7 7, 0, 0, 0, -7 -7" transform="rotate(0,177.5,79.5)"/><rect x="188" y="76" width="7" height="7" transform="rotate(0,191.5,79.5)"/><rect x="195" y="76" width="7" height="7" transform="rotate(0,198.5,79.5)"/><rect x="202" y="76" width="7" height="7" transform="rotate(0,205.5,79.5)"/><path d="M 209 76v 7h 3.5a 3.5 3.5, 0, 0, 0, 0 -7" transform="rotate(0,212.5,79.5)"/><path d="M 230 76v 7h 7a 7 7, 0, 0, 0, -7 -7" transform="rotate(-90,233.5,79.5)"/><path d="M 237 76v 7h 7a 7 7, 0, 0, 0, -7 -7" transform="rotate(0,240.5,79.5)"/><path d="M 265 76v 7h 3.5a 3.5 3.5, 0, 0, 0, 0 -7" transform="rotate(-90,268.5,79.5)"/><path d="M 20 83v 7h 3.5a 3.5 3.5, 0, 0, 0, 0 -7" transform="rotate(180,23.5,86.5)"/><rect x="27" y="83" width="7" height="7" transform="rotate(0,30.5,86.5)"/><rect x="34" y="83" width="7" height="7" transform="rotate(0,37.5,86.5)"/><rect x="41" y="83" width="7" height="7" transform="rotate(0,44.5,86.5)"/><path d="M 48 83v 7h 7a 7 7, 0, 0, 0, -7 -7" transform="rotate(90,51.5,86.5)"/><path d="M 90 83v 7h 3.5a 3.5 3.5, 0, 0, 0, 0 -7" transform="rotate(-90,93.5,86.5)"/><path d="M 111 83v 7h 7a 7 7, 0, 0, 0, -7 -7" transform="rotate(-90,114.5,86.5)"/><rect x="118" y="83" width="7" height="7" transform="rotate(0,121.5,86.5)"/><rect x="125" y="83" width="7" height="7" transform="rotate(0,128.5,86.5)"/><circle cx="163.5" cy="86.5" r="3.5" transform="rotate(0,163.5,86.5)"/><rect x="174" y="83" width="7" height="7" transform="rotate(0,177.5,86.5)"/><rect x="181" y="83" width="7" height="7" transform="rotate(0,184.5,86.5)"/><rect x="188" y="83" width="7" height="7" transform="rotate(0,191.5,86.5)"/><path d="M 216 83v 7h 7a 7 7, 0, 0, 0, -7 -7" transform="rotate(-90,219.5,86.5)"/><rect x="223" y="83" width="7" height="7" transform="rotate(0,226.5,86.5)"/><rect x="230" y="83" width="7" height="7" transform="rotate(0,233.5,86.5)"/><rect x="237" y="83" width="7" height="7" transform="rotate(0,240.5,86.5)"/><path d="M 244 83v 7h 3.5a 3.5 3.5, 0, 0, 0, 0 -7" transform="rotate(0,247.5,86.5)"/><path d="M 265 83v 7h 3.5a 3.5 3.5, 0, 0, 0, 0 -7" transform="rotate(90,268.5,86.5)"/><rect x="27" y="90" width="7" height="7" transform="rotate(0,30.5,93.5)"/><rect x="34" y="90" width="7" height="7" transform="rotate(0,37.5,93.5)"/><path d="M 41 90v 7h 7a 7 7, 0, 0, 0, -7 -7" transform="rotate(90,44.5,93.5)"/><circle cx="65.5" cy="93.5" r="3.5" transform="rotate(0,65.5,93.5)"/><path d="M 90 90v 7h 7a 7 7, 0, 0, 0, -7 -7" transform="rotate(180,93.5,93.5)"/><rect x="97" y="90" width="7" height="7" transform="rotate(0,100.5,93.5)"/><rect x="104" y="90" width="7" height="7" transform="rotate(0,107.5,93.5)"/><path d="M 111 90v 7h 7a 7 7, 0, 0, 0, -7 -7" transform="rotate(90,114.5,93.5)"/><rect x="125" y="90" width="7" height="7" transform="rotate(0,128.5,93.5)"/><rect x="132" y="90" width="7" height="7" transform="rotate(0,135.5,93.5)"/><rect x="139" y="90" width="7" height="7" transform="rotate(0,142.5,93.5)"/><rect x="146" y="90" width="7" height="7" transform="rotate(0,149.5,93.5)"/><path d="M 153 90v 7h 7a 7 7, 0, 0, 0, -7 -7" transform="rotate(0,156.5,93.5)"/><path d="M 174 90v 7h 3.5a 3.5 3.5, 0, 0, 0, 0 -7" transform="rotate(90,177.5,93.5)"/><path d="M 188 90v 7h 7a 7 7, 0, 0, 0, -7 -7" transform="rotate(180,191.5,93.5)"/><rect x="195" y="90" width="7" height="7" transform="rotate(0,198.5,93.5)"/><path d="M 202 90v 7h 7a 7 7, 0, 0, 0, -7 -7" transform="rotate(0,205.5,93.5)"/><path d="M 216 90v 7h 7a 7 7, 0, 0, 0, -7 -7" transform="rotate(180,219.5,93.5)"/><rect x="223" y="90" width="7" height="7" transform="rotate(0,226.5,93.5)"/><path d="M 237 90v 7h 3.5a 3.5 3.5, 0, 0, 0, 0 -7" transform="rotate(90,240.5,93.5)"/><path d="M 251 90v 7h 3.5a 3.5 3.5, 0, 0, 0, 0 -7" transform="rotate(180,254.5,93.5)"/><path d="M 258 90v 7h 7a 7 7, 0, 0, 0, -7 -7" transform="rotate(0,261.5,93.5)"/><rect x="27" y="97" width="7" height="7" transform="rotate(0,30.5,100.5)"/><path d="M 34 97v 7h 7a 7 7, 0, 0, 0, -7 -7" transform="rotate(90,37.5,100.5)"/><path d="M 55 97v 7h 3.5a 3.5 3.5, 0, 0, 0, 0 -7" transform="rotate(-90,58.5,100.5)"/><circle cx="86.5" cy="100.5" r="3.5" transform="rotate(0,86.5,100.5)"/><rect x="125" y="97" width="7" height="7" transform="rotate(0,128.5,100.5)"/><rect x="139" y="97" width="7" height="7" transform="rotate(0,142.5,100.5)"/><rect x="146" y="97" width="7" height="7" transform="rotate(0,149.5,100.5)"/><rect x="153" y="97" width="7" height="7" transform="rotate(0,156.5,100.5)"/><path d="M 202 97v 7h 3.5a 3.5 3.5, 0, 0, 0, 0 -7" transform="rotate(90,205.5,100.5)"/><rect x="223" y="97" width="7" height="7" transform="rotate(0,226.5,100.5)"/><rect x="258" y="97" width="7" height="7" transform="rotate(0,261.5,100.5)"/><path d="M 27 104v 7h 3.5a 3.5 3.5, 0, 0, 0, 0 -7" transform="rotate(90,30.5,107.5)"/><rect x="55" y="104" width="7" height="7" transform="rotate(0,58.5,107.5)"/><rect x="62" y="104" width="7" height="7" transform="rotate(0,65.5,107.5)"/><rect x="69" y="104" width="7" height="7" transform="rotate(0,72.5,107.5)"/><path d="M 76 104v 7h 3.5a 3.5 3.5, 0, 0, 0, 0 -7" transform="rotate(0,79.5,107.5)"/><circle cx="93.5" cy="107.5" r="3.5" transform="rotate(0,93.5,107.5)"/><path d="M 104 104v 7h 3.5a 3.5 3.5, 0, 0, 0, 0 -7" transform="rotate(180,107.5,107.5)"/><rect x="111" y="104" width="7" height="7" transform="rotate(0,114.5,107.5)"/><rect x="118" y="104" width="7" height="7" transform="rotate(0,121.5,107.5)"/><rect x="125" y="104" width="7" height="7" transform="rotate(0,128.5,107.5)"/><rect x="132" y="104" width="7" height="7" transform="rotate(0,135.5,107.5)"/><rect x="139" y="104" width="7" height="7" transform="rotate(0,142.5,107.5)"/><rect x="146" y="104" width="7" height="7" transform="rotate(0,149.5,107.5)"/><rect x="153" y="104" width="7" height="7" transform="rotate(0,156.5,107.5)"/><path d="M 174 104v 7h 3.5a 3.5 3.5, 0, 0, 0, 0 -7" transform="rotate(-90,177.5,107.5)"/><path d="M 209 104v 7h 3.5a 3.5 3.5, 0, 0, 0, 0 -7" transform="rotate(-90,212.5,107.5)"/><rect x="223" y="104" width="7" height="7" transform="rotate(0,226.5,107.5)"/><rect x="230" y="104" width="7" height="7" transform="rotate(0,233.5,107.5)"/><path d="M 237 104v 7h 3.5a 3.5 3.5, 0, 0, 0, 0 -7" transform="rotate(0,240.5,107.5)"/><path d="M 251 104v 7h 3.5a 3.5 3.5, 0, 0, 0, 0 -7" transform="rotate(180,254.5,107.5)"/><rect x="258" y="104" width="7" height="7" transform="rotate(0,261.5,107.5)"/><rect x="265" y="104" width="7" height="7" transform="rotate(0,268.5,107.5)"/><path d="M 272 104v 7h 3.5a 3.5 3.5, 0, 0, 0, 0 -7" transform="rotate(0,275.5,107.5)"/><circle cx="23.5" cy="114.5" r="3.5" transform="rotate(0,23.5,114.5)"/><path d="M 34 111v 7h 7a 7 7, 0, 0, 0, -7 -7" transform="rotate(-90,37.5,114.5)"/><path d="M 41 111v 7h 3.5a 3.5 3.5, 0, 0, 0, 0 -7" transform="rotate(0,44.5,114.5)"/><path d="M 55 111v 7h 3.5a 3.5 3.5, 0, 0, 0, 0 -7" transform="rotate(90,58.5,114.5)"/><circle cx="86.5" cy="114.5" r="3.5" transform="rotate(0,86.5,114.5)"/><circle cx="100.5" cy="114.5" r="3.5" transform="rotate(0,100.5,114.5)"/><rect x="111" y="111" width="7" height="7" transform="rotate(0,114.5,114.5)"/><path d="M 125 111v 7h 3.5a 3.5 3.5, 0, 0, 0, 0 -7" transform="rotate(90,128.5,114.5)"/><path d="M 146 111v 7h 7a 7 7, 0, 0, 0, -7 -7" transform="rotate(180,149.5,114.5)"/><rect x="153" y="111" width="7" height="7" transform="rotate(0,156.5,114.5)"/><path d="M 160 111v 7h 7a 7 7, 0, 0, 0, -7 -7" transform="rotate(0,163.5,114.5)"/><path d="M 174 111v 7h 3.5a 3.5 3.5, 0, 0, 0, 0 -7" transform="rotate(90,177.5,114.5)"/><path d="M 202 111v 7h 3.5a 3.5 3.5, 0, 0, 0, 0 -7" transform="rotate(180,205.5,114.5)"/><rect x="209" y="111" width="7" height="7" transform="rotate(0,212.5,114.5)"/><rect x="216" y="111" width="7" height="7" transform="rotate(0,219.5,114.5)"/><rect x="223" y="111" width="7" height="7" transform="rotate(0,226.5,114.5)"/><path d="M 244 111v 7h 3.5a 3.5 3.5, 0, 0, 0, 0 -7" transform="rotate(-90,247.5,114.5)"/><rect x="258" y="111" width="7" height="7" transform="rotate(0,261.5,114.5)"/><path d="M 34 118v 7h 3.5a 3.5 3.5, 0, 0, 0, 0 -7" transform="rotate(90,37.5,121.5)"/><path d="M 62 118v 7h 3.5a 3.5 3.5, 0, 0, 0, 0 -7" transform="rotate(180,65.5,121.5)"/><path d="M 69 118v 7h 7a 7 7, 0, 0, 0, -7 -7" transform="rotate(0,72.5,121.5)"/><path d="M 90 118v 7h 3.5a 3.5 3.5, 0, 0, 0, 0 -7" transform="rotate(-90,93.5,121.5)"/><rect x="111" y="118" width="7" height="7" transform="rotate(0,114.5,121.5)"/><path d="M 118 118v 7h 7a 7 7, 0, 0, 0, -7 -7" transform="rotate(0,121.5,121.5)"/><path d="M 139 118v 7h 3.5a 3.5 3.5, 0, 0, 0, 0 -7" transform="rotate(-90,142.5,121.5)"/><path d="M 153 118v 7h 7a 7 7, 0, 0, 0, -7 -7" transform="rotate(180,156.5,121.5)"/><path d="M 160 118v 7h 7a 7 7, 0, 0, 0, -7 -7" transform="rotate(90,163.5,121.5)"/><path d="M 188 118v 7h 3.5a 3.5 3.5, 0, 0, 0, 0 -7" transform="rotate(-90,191.5,121.5)"/><rect x="209" y="118" width="7" height="7" transform="rotate(0,212.5,121.5)"/><rect x="216" y="118" width="7" height="7" transform="rotate(0,219.5,121.5)"/><rect x="223" y="118" width="7" height="7" transform="rotate(0,226.5,121.5)"/><rect x="244" y="118" width="7" height="7" transform="rotate(0,247.5,121.5)"/><rect x="251" y="118" width="7" height="7" transform="rotate(0,254.5,121.5)"/><rect x="258" y="118" width="7" height="7" transform="rotate(0,261.5,121.5)"/><path d="M 69 125v 7h 7a 7 7, 0, 0, 0, -7 -7" transform="rotate(180,72.5,128.5)"/><rect x="76" y="125" width="7" height="7" transform="rotate(0,79.5,128.5)"/><rect x="83" y="125" width="7" height="7" transform="rotate(0,86.5,128.5)"/><rect x="90" y="125" width="7" height="7" transform="rotate(0,93.5,128.5)"/><path d="M 97 125v 7h 7a 7 7, 0, 0, 0, -7 -7" transform="rotate(0,100.5,128.5)"/><rect x="111" y="125" width="7" height="7" transform="rotate(0,114.5,128.5)"/><rect x="118" y="125" width="7" height="7" transform="rotate(0,121.5,128.5)"/><path d="M 139 125v 7h 7a 7 7, 0, 0, 0, -7 -7" transform="rotate(180,142.5,128.5)"/><path d="M 146 125v 7h 7a 7 7, 0, 0, 0, -7 -7" transform="rotate(0,149.5,128.5)"/><path d="M 174 125v 7h 3.5a 3.5 3.5, 0, 0, 0, 0 -7" transform="rotate(180,177.5,128.5)"/><rect x="181" y="125" width="7" height="7" transform="rotate(0,184.5,128.5)"/><rect x="188" y="125" width="7" height="7" transform="rotate(0,191.5,128.5)"/><path d="M 202 125v 7h 3.5a 3.5 3.5, 0, 0, 0, 0 -7" transform="rotate(180,205.5,128.5)"/><rect x="209" y="125" width="7" height="7" transform="rotate(0,212.5,128.5)"/><path d="M 223 125v 7h 7a 7 7, 0, 0, 0, -7 -7" transform="rotate(180,226.5,128.5)"/><rect x="230" y="125" width="7" height="7" transform="rotate(0,233.5,128.5)"/><rect x="237" y="125" width="7" height="7" transform="rotate(0,240.5,128.5)"/><path d="M 244 125v 7h 7a 7 7, 0, 0, 0, -7 -7" transform="rotate(90,247.5,128.5)"/><rect x="258" y="125" width="7" height="7" transform="rotate(0,261.5,128.5)"/><path d="M 20 132v 7h 3.5a 3.5 3.5, 0, 0, 0, 0 -7" transform="rotate(180,23.5,135.5)"/><rect x="27" y="132" width="7" height="7" transform="rotate(0,30.5,135.5)"/><rect x="34" y="132" width="7" height="7" transform="rotate(0,37.5,135.5)"/><path d="M 41 132v 7h 3.5a 3.5 3.5, 0, 0, 0, 0 -7" transform="rotate(0,44.5,135.5)"/><circle cx="65.5" cy="135.5" r="3.5" transform="rotate(0,65.5,135.5)"/><rect x="76" y="132" width="7" height="7" transform="rotate(0,79.5,135.5)"/><path d="M 83 132v 7h 7a 7 7, 0, 0, 0, -7 -7" transform="rotate(90,86.5,135.5)"/><path d="M 97 132v 7h 3.5a 3.5 3.5, 0, 0, 0, 0 -7" transform="rotate(90,100.5,135.5)"/><path d="M 111 132v 7h 7a 7 7, 0, 0, 0, -7 -7" transform="rotate(180,114.5,135.5)"/><rect x="118" y="132" width="7" height="7" transform="rotate(0,121.5,135.5)"/><rect x="125" y="132" width="7" height="7" transform="rotate(0,128.5,135.5)"/><path d="M 132 132v 7h 7a 7 7, 0, 0, 0, -7 -7" transform="rotate(0,135.5,135.5)"/><path d="M 146 132v 7h 7a 7 7, 0, 0, 0, -7 -7" transform="rotate(180,149.5,135.5)"/><path d="M 153 132v 7h 3.5a 3.5 3.5, 0, 0, 0, 0 -7" transform="rotate(0,156.5,135.5)"/><circle cx="170.5" cy="135.5" r="3.5" transform="rotate(0,170.5,135.5)"/><rect x="181" y="132" width="7" height="7" transform="rotate(0,184.5,135.5)"/><path d="M 188 132v 7h 7a 7 7, 0, 0, 0, -7 -7" transform="rotate(90,191.5,135.5)"/><rect x="209" y="132" width="7" height="7" transform="rotate(0,212.5,135.5)"/><path d="M 216 132v 7h 7a 7 7, 0, 0, 0, -7 -7" transform="rotate(0,219.5,135.5)"/><path d="M 230 132v 7h 3.5a 3.5 3.5, 0, 0, 0, 0 -7" transform="rotate(90,233.5,135.5)"/><path d="M 251 132v 7h 7a 7 7, 0, 0, 0, -7 -7" transform="rotate(-90,254.5,135.5)"/><rect x="258" y="132" width="7" height="7" transform="rotate(0,261.5,135.5)"/><rect x="265" y="132" width="7" height="7" transform="rotate(0,268.5,135.5)"/><path d="M 272 132v 7h 3.5a 3.5 3.5, 0, 0, 0, 0 -7" transform="rotate(0,275.5,135.5)"/><path d="M 27 139v 7h 7a 7 7, 0, 0, 0, -7 -7" transform="rotate(180,30.5,142.5)"/><rect x="34" y="139" width="7" height="7" transform="rotate(0,37.5,142.5)"/><path d="M 48 139v 7h 3.5a 3.5 3.5, 0, 0, 0, 0 -7" transform="rotate(180,51.5,142.5)"/><path d="M 55 139v 7h 7a 7 7, 0, 0, 0, -7 -7" transform="rotate(0,58.5,142.5)"/><path d="M 69 139v 7h 3.5a 3.5 3.5, 0, 0, 0, 0 -7" transform="rotate(180,72.5,142.5)"/><path d="M 76 139v 7h 7a 7 7, 0, 0, 0, -7 -7" transform="rotate(90,79.5,142.5)"/><circle cx="93.5" cy="142.5" r="3.5" transform="rotate(0,93.5,142.5)"/><rect x="118" y="139" width="7" height="7" transform="rotate(0,121.5,142.5)"/><rect x="125" y="139" width="7" height="7" transform="rotate(0,128.5,142.5)"/><rect x="132" y="139" width="7" height="7" transform="rotate(0,135.5,142.5)"/><path d="M 139 139v 7h 3.5a 3.5 3.5, 0, 0, 0, 0 -7" transform="rotate(0,142.5,142.5)"/><circle cx="163.5" cy="142.5" r="3.5" transform="rotate(0,163.5,142.5)"/><path d="M 181 139v 7h 3.5a 3.5 3.5, 0, 0, 0, 0 -7" transform="rotate(90,184.5,142.5)"/><path d="M 195 139v 7h 7a 7 7, 0, 0, 0, -7 -7" transform="rotate(-90,198.5,142.5)"/><rect x="202" y="139" width="7" height="7" transform="rotate(0,205.5,142.5)"/><rect x="209" y="139" width="7" height="7" transform="rotate(0,212.5,142.5)"/><rect x="216" y="139" width="7" height="7" transform="rotate(0,219.5,142.5)"/><path d="M 244 139v 7h 3.5a 3.5 3.5, 0, 0, 0, 0 -7" transform="rotate(180,247.5,142.5)"/><path d="M 251 139v 7h 7a 7 7, 0, 0, 0, -7 -7" transform="rotate(90,254.5,142.5)"/><rect x="34" y="146" width="7" height="7" transform="rotate(0,37.5,149.5)"/><path d="M 41 146v 7h 3.5a 3.5 3.5, 0, 0, 0, 0 -7" transform="rotate(0,44.5,149.5)"/><rect x="55" y="146" width="7" height="7" transform="rotate(0,58.5,149.5)"/><path d="M 62 146v 7h 3.5a 3.5 3.5, 0, 0, 0, 0 -7" transform="rotate(0,65.5,149.5)"/><path d="M 83 146v 7h 3.5a 3.5 3.5, 0, 0, 0, 0 -7" transform="rotate(-90,86.5,149.5)"/><path d="M 104 146v 7h 3.5a 3.5 3.5, 0, 0, 0, 0 -7" transform="rotate(-90,107.5,149.5)"/><rect x="118" y="146" width="7" height="7" transform="rotate(0,121.5,149.5)"/><path d="M 153 146v 7h 3.5a 3.5 3.5, 0, 0, 0, 0 -7" transform="rotate(-90,156.5,149.5)"/><path d="M 167 146v 7h 7a 7 7, 0, 0, 0, -7 -7" transform="rotate(-90,170.5,149.5)"/><path d="M 174 146v 7h 7a 7 7, 0, 0, 0, -7 -7" transform="rotate(0,177.5,149.5)"/><path d="M 188 146v 7h 7a 7 7, 0, 0, 0, -7 -7" transform="rotate(-90,191.5,149.5)"/><rect x="195" y="146" width="7" height="7" transform="rotate(0,198.5,149.5)"/><rect x="202" y="146" width="7" height="7" transform="rotate(0,205.5,149.5)"/><rect x="209" y="146" width="7" height="7" transform="rotate(0,212.5,149.5)"/><rect x="216" y="146" width="7" height="7" transform="rotate(0,219.5,149.5)"/><circle cx="240.5" cy="149.5" r="3.5" transform="rotate(0,240.5,149.5)"/><path d="M 258 146v 7h 3.5a 3.5 3.5, 0, 0, 0, 0 -7" transform="rotate(-90,261.5,149.5)"/><path d="M 20 153v 7h 3.5a 3.5 3.5, 0, 0, 0, 0 -7" transform="rotate(-90,23.5,156.5)"/><rect x="34" y="153" width="7" height="7" transform="rotate(0,37.5,156.5)"/><path d="M 48 153v 7h 7a 7 7, 0, 0, 0, -7 -7" transform="rotate(-90,51.5,156.5)"/><path d="M 55 153v 7h 7a 7 7, 0, 0, 0, -7 -7" transform="rotate(90,58.5,156.5)"/><path d="M 76 153v 7h 7a 7 7, 0, 0, 0, -7 -7" transform="rotate(-90,79.5,156.5)"/><rect x="83" y="153" width="7" height="7" transform="rotate(0,86.5,156.5)"/><path d="M 90 153v 7h 3.5a 3.5 3.5, 0, 0, 0, 0 -7" transform="rotate(0,93.5,156.5)"/><rect x="104" y="153" width="7" height="7" transform="rotate(0,107.5,156.5)"/><rect x="118" y="153" width="7" height="7" transform="rotate(0,121.5,156.5)"/><path d="M 146 153v 7h 3.5a 3.5 3.5, 0, 0, 0, 0 -7" transform="rotate(180,149.5,156.5)"/><path d="M 153 153v 7h 7a 7 7, 0, 0, 0, -7 -7" transform="rotate(90,156.5,156.5)"/><rect x="167" y="153" width="7" height="7" transform="rotate(0,170.5,156.5)"/><rect x="174" y="153" width="7" height="7" transform="rotate(0,177.5,156.5)"/><rect x="181" y="153" width="7" height="7" transform="rotate(0,184.5,156.5)"/><path d="M 188 153v 7h 7a 7 7, 0, 0, 0, -7 -7" transform="rotate(90,191.5,156.5)"/><path d="M 216 153v 7h 3.5a 3.5 3.5, 0, 0, 0, 0 -7" transform="rotate(90,219.5,156.5)"/><path d="M 251 153v 7h 3.5a 3.5 3.5, 0, 0, 0, 0 -7" transform="rotate(180,254.5,156.5)"/><rect x="258" y="153" width="7" height="7" transform="rotate(0,261.5,156.5)"/><path d="M 272 153v 7h 3.5a 3.5 3.5, 0, 0, 0, 0 -7" transform="rotate(-90,275.5,156.5)"/><path d="M 20 160v 7h 7a 7 7, 0, 0, 0, -7 -7" transform="rotate(180,23.5,163.5)"/><rect x="27" y="160" width="7" height="7" transform="rotate(0,30.5,163.5)"/><rect x="34" y="160" width="7" height="7" transform="rotate(0,37.5,163.5)"/><rect x="41" y="160" width="7" height="7" transform="rotate(0,44.5,163.5)"/><path d="M 48 160v 7h 7a 7 7, 0, 0, 0, -7 -7" transform="rotate(90,51.5,163.5)"/><circle cx="65.5" cy="163.5" r="3.5" transform="rotate(0,65.5,163.5)"/><path d="M 76 160v 7h 3.5a 3.5 3.5, 0, 0, 0, 0 -7" transform="rotate(90,79.5,163.5)"/><path d="M 97 160v 7h 7a 7 7, 0, 0, 0, -7 -7" transform="rotate(-90,100.5,163.5)"/><rect x="104" y="160" width="7" height="7" transform="rotate(0,107.5,163.5)"/><rect x="111" y="160" width="7" height="7" transform="rotate(0,114.5,163.5)"/><rect x="118" y="160" width="7" height="7" transform="rotate(0,121.5,163.5)"/><rect x="125" y="160" width="7" height="7" transform="rotate(0,128.5,163.5)"/><path d="M 132 160v 7h 7a 7 7, 0, 0, 0, -7 -7" transform="rotate(0,135.5,163.5)"/><path d="M 167 160v 7h 7a 7 7, 0, 0, 0, -7 -7" transform="rotate(180,170.5,163.5)"/><rect x="174" y="160" width="7" height="7" transform="rotate(0,177.5,163.5)"/><path d="M 181 160v 7h 7a 7 7, 0, 0, 0, -7 -7" transform="rotate(90,184.5,163.5)"/><path d="M 223 160v 7h 7a 7 7, 0, 0, 0, -7 -7" transform="rotate(-90,226.5,163.5)"/><path d="M 230 160v 7h 3.5a 3.5 3.5, 0, 0, 0, 0 -7" transform="rotate(0,233.5,163.5)"/><path d="M 258 160v 7h 3.5a 3.5 3.5, 0, 0, 0, 0 -7" transform="rotate(90,261.5,163.5)"/><path d="M 272 160v 7h 3.5a 3.5 3.5, 0, 0, 0, 0 -7" transform="rotate(90,275.5,163.5)"/><rect x="27" y="167" width="7" height="7" transform="rotate(0,30.5,170.5)"/><rect x="34" y="167" width="7" height="7" transform="rotate(0,37.5,170.5)"/><path d="M 69 167v 7h 3.5a 3.5 3.5, 0, 0, 0, 0 -7" transform="rotate(-90,72.5,170.5)"/><circle cx="86.5" cy="170.5" r="3.5" transform="rotate(0,86.5,170.5)"/><path d="M 97 167v 7h 7a 7 7, 0, 0, 0, -7 -7" transform="rotate(180,100.5,170.5)"/><rect x="104" y="167" width="7" height="7" transform="rotate(0,107.5,170.5)"/><rect x="111" y="167" width="7" height="7" transform="rotate(0,114.5,170.5)"/><rect x="118" y="167" width="7" height="7" transform="rotate(0,121.5,170.5)"/><path d="M 132 167v 7h 3.5a 3.5 3.5, 0, 0, 0, 0 -7" transform="rotate(90,135.5,170.5)"/><path d="M 146 167v 7h 3.5a 3.5 3.5, 0, 0, 0, 0 -7" transform="rotate(180,149.5,170.5)"/><path d="M 153 167v 7h 3.5a 3.5 3.5, 0, 0, 0, 0 -7" transform="rotate(0,156.5,170.5)"/><path d="M 174 167v 7h 3.5a 3.5 3.5, 0, 0, 0, 0 -7" transform="rotate(90,177.5,170.5)"/><path d="M 188 167v 7h 3.5a 3.5 3.5, 0, 0, 0, 0 -7" transform="rotate(-90,191.5,170.5)"/><path d="M 209 167v 7h 3.5a 3.5 3.5, 0, 0, 0, 0 -7" transform="rotate(-90,212.5,170.5)"/><path d="M 223 167v 7h 3.5a 3.5 3.5, 0, 0, 0, 0 -7" transform="rotate(90,226.5,170.5)"/><circle cx="247.5" cy="170.5" r="3.5" transform="rotate(0,247.5,170.5)"/><circle cx="268.5" cy="170.5" r="3.5" transform="rotate(0,268.5,170.5)"/><path d="M 20 174v 7h 7a 7 7, 0, 0, 0, -7 -7" transform="rotate(-90,23.5,177.5)"/><rect x="27" y="174" width="7" height="7" transform="rotate(0,30.5,177.5)"/><rect x="34" y="174" width="7" height="7" transform="rotate(0,37.5,177.5)"/><path d="M 41 174v 7h 7a 7 7, 0, 0, 0, -7 -7" transform="rotate(0,44.5,177.5)"/><path d="M 62 174v 7h 3.5a 3.5 3.5, 0, 0, 0, 0 -7" transform="rotate(180,65.5,177.5)"/><path d="M 69 174v 7h 7a 7 7, 0, 0, 0, -7 -7" transform="rotate(90,72.5,177.5)"/><rect x="118" y="174" width="7" height="7" transform="rotate(0,121.5,177.5)"/><circle cx="142.5" cy="177.5" r="3.5" transform="rotate(0,142.5,177.5)"/><circle cx="163.5" cy="177.5" r="3.5" transform="rotate(0,163.5,177.5)"/><path d="M 181 174v 7h 7a 7 7, 0, 0, 0, -7 -7" transform="rotate(-90,184.5,177.5)"/><rect x="188" y="174" width="7" height="7" transform="rotate(0,191.5,177.5)"/><rect x="195" y="174" width="7" height="7" transform="rotate(0,198.5,177.5)"/><rect x="202" y="174" width="7" height="7" transform="rotate(0,205.5,177.5)"/><rect x="209" y="174" width="7" height="7" transform="rotate(0,212.5,177.5)"/><path d="M 216 174v 7h 7a 7 7, 0, 0, 0, -7 -7" transform="rotate(0,219.5,177.5)"/><path d="M 230 174v 7h 3.5a 3.5 3.5, 0, 0, 0, 0 -7" transform="rotate(-90,233.5,177.5)"/><path d="M 251 174v 7h 3.5a 3.5 3.5, 0, 0, 0, 0 -7" transform="rotate(-90,254.5,177.5)"/><rect x="20" y="181" width="7" height="7" transform="rotate(0,23.5,184.5)"/><path d="M 34 181v 7h 7a 7 7, 0, 0, 0, -7 -7" transform="rotate(180,37.5,184.5)"/><path d="M 41 181v 7h 7a 7 7, 0, 0, 0, -7 -7" transform="rotate(90,44.5,184.5)"/><circle cx="58.5" cy="184.5" r="3.5" transform="rotate(0,58.5,184.5)"/><path d="M 76 181v 7h 7a 7 7, 0, 0, 0, -7 -7" transform="rotate(-90,79.5,184.5)"/><path d="M 83 181v 7h 7a 7 7, 0, 0, 0, -7 -7" transform="rotate(0,86.5,184.5)"/><path d="M 97 181v 7h 3.5a 3.5 3.5, 0, 0, 0, 0 -7" transform="rotate(180,100.5,184.5)"/><rect x="104" y="181" width="7" height="7" transform="rotate(0,107.5,184.5)"/><rect x="111" y="181" width="7" height="7" transform="rotate(0,114.5,184.5)"/><path d="M 118 181v 7h 7a 7 7, 0, 0, 0, -7 -7" transform="rotate(90,121.5,184.5)"/><path d="M 146 181v 7h 3.5a 3.5 3.5, 0, 0, 0, 0 -7" transform="rotate(180,149.5,184.5)"/><path d="M 153 181v 7h 7a 7 7, 0, 0, 0, -7 -7" transform="rotate(0,156.5,184.5)"/><path d="M 167 181v 7h 3.5a 3.5 3.5, 0, 0, 0, 0 -7" transform="rotate(-90,170.5,184.5)"/><rect x="181" y="181" width="7" height="7" transform="rotate(0,184.5,184.5)"/><rect x="188" y="181" width="7" height="7" transform="rotate(0,191.5,184.5)"/><rect x="195" y="181" width="7" height="7" transform="rotate(0,198.5,184.5)"/><rect x="216" y="181" width="7" height="7" transform="rotate(0,219.5,184.5)"/><rect x="223" y="181" width="7" height="7" transform="rotate(0,226.5,184.5)"/><rect x="230" y="181" width="7" height="7" transform="rotate(0,233.5,184.5)"/><path d="M 237 181v 7h 7a 7 7, 0, 0, 0, -7 -7" transform="rotate(0,240.5,184.5)"/><path d="M 251 181v 7h 7a 7 7, 0, 0, 0, -7 -7" transform="rotate(180,254.5,184.5)"/><path d="M 258 181v 7h 7a 7 7, 0, 0, 0, -7 -7" transform="rotate(0,261.5,184.5)"/><rect x="20" y="188" width="7" height="7" transform="rotate(0,23.5,191.5)"/><path d="M 27 188v 7h 7a 7 7, 0, 0, 0, -7 -7" transform="rotate(0,30.5,191.5)"/><circle cx="51.5" cy="191.5" r="3.5" transform="rotate(0,51.5,191.5)"/><circle cx="65.5" cy="191.5" r="3.5" transform="rotate(0,65.5,191.5)"/><rect x="76" y="188" width="7" height="7" transform="rotate(0,79.5,191.5)"/><rect x="83" y="188" width="7" height="7" transform="rotate(0,86.5,191.5)"/><circle cx="135.5" cy="191.5" r="3.5" transform="rotate(0,135.5,191.5)"/><path d="M 153 188v 7h 3.5a 3.5 3.5, 0, 0, 0, 0 -7" transform="rotate(90,156.5,191.5)"/><rect x="167" y="188" width="7" height="7" transform="rotate(0,170.5,191.5)"/><rect x="174" y="188" width="7" height="7" transform="rotate(0,177.5,191.5)"/><rect x="181" y="188" width="7" height="7" transform="rotate(0,184.5,191.5)"/><rect x="188" y="188" width="7" height="7" transform="rotate(0,191.5,191.5)"/><rect x="195" y="188" width="7" height="7" transform="rotate(0,198.5,191.5)"/><path d="M 209 188v 7h 3.5a 3.5 3.5, 0, 0, 0, 0 -7" transform="rotate(180,212.5,191.5)"/><rect x="216" y="188" width="7" height="7" transform="rotate(0,219.5,191.5)"/><path d="M 223 188v 7h 7a 7 7, 0, 0, 0, -7 -7" transform="rotate(90,226.5,191.5)"/><path d="M 237 188v 7h 7a 7 7, 0, 0, 0, -7 -7" transform="rotate(180,240.5,191.5)"/><path d="M 244 188v 7h 3.5a 3.5 3.5, 0, 0, 0, 0 -7" transform="rotate(0,247.5,191.5)"/><path d="M 258 188v 7h 3.5a 3.5 3.5, 0, 0, 0, 0 -7" transform="rotate(90,261.5,191.5)"/><circle cx="275.5" cy="191.5" r="3.5" transform="rotate(0,275.5,191.5)"/><path d="M 20 195v 7h 7a 7 7, 0, 0, 0, -7 -7" transform="rotate(180,23.5,198.5)"/><rect x="27" y="195" width="7" height="7" transform="rotate(0,30.5,198.5)"/><path d="M 34 195v 7h 7a 7 7, 0, 0, 0, -7 -7" transform="rotate(0,37.5,198.5)"/><path d="M 55 195v 7h 3.5a 3.5 3.5, 0, 0, 0, 0 -7" transform="rotate(-90,58.5,198.5)"/><path d="M 69 195v 7h 3.5a 3.5 3.5, 0, 0, 0, 0 -7" transform="rotate(180,72.5,198.5)"/><rect x="76" y="195" width="7" height="7" transform="rotate(0,79.5,198.5)"/><rect x="83" y="195" width="7" height="7" transform="rotate(0,86.5,198.5)"/><circle cx="100.5" cy="198.5" r="3.5" transform="rotate(0,100.5,198.5)"/><path d="M 146 195v 7h 3.5a 3.5 3.5, 0, 0, 0, 0 -7" transform="rotate(-90,149.5,198.5)"/><rect x="167" y="195" width="7" height="7" transform="rotate(0,170.5,198.5)"/><rect x="174" y="195" width="7" height="7" transform="rotate(0,177.5,198.5)"/><rect x="195" y="195" width="7" height="7" transform="rotate(0,198.5,198.5)"/><path d="M 202 195v 7h 7a 7 7, 0, 0, 0, -7 -7" transform="rotate(0,205.5,198.5)"/><circle cx="233.5" cy="198.5" r="3.5" transform="rotate(0,233.5,198.5)"/><path d="M 34 202v 7h 7a 7 7, 0, 0, 0, -7 -7" transform="rotate(180,37.5,205.5)"/><path d="M 41 202v 7h 3.5a 3.5 3.5, 0, 0, 0, 0 -7" transform="rotate(0,44.5,205.5)"/><path d="M 55 202v 7h 7a 7 7, 0, 0, 0, -7 -7" transform="rotate(180,58.5,205.5)"/><path d="M 62 202v 7h 3.5a 3.5 3.5, 0, 0, 0, 0 -7" transform="rotate(0,65.5,205.5)"/><path d="M 83 202v 7h 7a 7 7, 0, 0, 0, -7 -7" transform="rotate(180,86.5,205.5)"/><path d="M 90 202v 7h 3.5a 3.5 3.5, 0, 0, 0, 0 -7" transform="rotate(0,93.5,205.5)"/><circle cx="128.5" cy="205.5" r="3.5" transform="rotate(0,128.5,205.5)"/><path d="M 146 202v 7h 7a 7 7, 0, 0, 0, -7 -7" transform="rotate(180,149.5,205.5)"/><rect x="153" y="202" width="7" height="7" transform="rotate(0,156.5,205.5)"/><rect x="160" y="202" width="7" height="7" transform="rotate(0,163.5,205.5)"/><rect x="167" y="202" width="7" height="7" transform="rotate(0,170.5,205.5)"/><path d="M 174 202v 7h 7a 7 7, 0, 0, 0, -7 -7" transform="rotate(90,177.5,205.5)"/><path d="M 195 202v 7h 7a 7 7, 0, 0, 0, -7 -7" transform="rotate(180,198.5,205.5)"/><rect x="202" y="202" width="7" height="7" transform="rotate(0,205.5,205.5)"/><path d="M 209 202v 7h 7a 7 7, 0, 0, 0, -7 -7" transform="rotate(0,212.5,205.5)"/><circle cx="226.5" cy="205.5" r="3.5" transform="rotate(0,226.5,205.5)"/><path d="M 244 202v 7h 7a 7 7, 0, 0, 0, -7 -7" transform="rotate(-90,247.5,205.5)"/><rect x="251" y="202" width="7" height="7" transform="rotate(0,254.5,205.5)"/><path d="M 258 202v 7h 7a 7 7, 0, 0, 0, -7 -7" transform="rotate(0,261.5,205.5)"/><circle cx="51.5" cy="212.5" r="3.5" transform="rotate(0,51.5,212.5)"/><path d="M 76 209v 7h 3.5a 3.5 3.5, 0, 0, 0, 0 -7" transform="rotate(-90,79.5,212.5)"/><path d="M 104 209v 7h 3.5a 3.5 3.5, 0, 0, 0, 0 -7" transform="rotate(-90,107.5,212.5)"/><path d="M 132 209v 7h 3.5a 3.5 3.5, 0, 0, 0, 0 -7" transform="rotate(180,135.5,212.5)"/><path d="M 139 209v 7h 7a 7 7, 0, 0, 0, -7 -7" transform="rotate(0,142.5,212.5)"/><rect x="153" y="209" width="7" height="7" transform="rotate(0,156.5,212.5)"/><path d="M 188 209v 7h 3.5a 3.5 3.5, 0, 0, 0, 0 -7" transform="rotate(-90,191.5,212.5)"/><path d="M 209 209v 7h 7a 7 7, 0, 0, 0, -7 -7" transform="rotate(180,212.5,212.5)"/><path d="M 216 209v 7h 7a 7 7, 0, 0, 0, -7 -7" transform="rotate(0,219.5,212.5)"/><path d="M 230 209v 7h 7a 7 7, 0, 0, 0, -7 -7" transform="rotate(-90,233.5,212.5)"/><rect x="237" y="209" width="7" height="7" transform="rotate(0,240.5,212.5)"/><rect x="244" y="209" width="7" height="7" transform="rotate(0,247.5,212.5)"/><rect x="251" y="209" width="7" height="7" transform="rotate(0,254.5,212.5)"/><rect x="258" y="209" width="7" height="7" transform="rotate(0,261.5,212.5)"/><path d="M 265 209v 7h 7a 7 7, 0, 0, 0, -7 -7" transform="rotate(0,268.5,212.5)"/><path d="M 20 216v 7h 3.5a 3.5 3.5, 0, 0, 0, 0 -7" transform="rotate(180,23.5,219.5)"/><rect x="27" y="216" width="7" height="7" transform="rotate(0,30.5,219.5)"/><path d="M 34 216v 7h 3.5a 3.5 3.5, 0, 0, 0, 0 -7" transform="rotate(0,37.5,219.5)"/><path d="M 55 216v 7h 3.5a 3.5 3.5, 0, 0, 0, 0 -7" transform="rotate(180,58.5,219.5)"/><rect x="62" y="216" width="7" height="7" transform="rotate(0,65.5,219.5)"/><rect x="69" y="216" width="7" height="7" transform="rotate(0,72.5,219.5)"/><rect x="76" y="216" width="7" height="7" transform="rotate(0,79.5,219.5)"/><path d="M 83 216v 7h 7a 7 7, 0, 0, 0, -7 -7" transform="rotate(0,86.5,219.5)"/><path d="M 97 216v 7h 7a 7 7, 0, 0, 0, -7 -7" transform="rotate(-90,100.5,219.5)"/><rect x="104" y="216" width="7" height="7" transform="rotate(0,107.5,219.5)"/><path d="M 139 216v 7h 3.5a 3.5 3.5, 0, 0, 0, 0 -7" transform="rotate(90,142.5,219.5)"/><rect x="153" y="216" width="7" height="7" transform="rotate(0,156.5,219.5)"/><path d="M 167 216v 7h 7a 7 7, 0, 0, 0, -7 -7" transform="rotate(-90,170.5,219.5)"/><rect x="174" y="216" width="7" height="7" transform="rotate(0,177.5,219.5)"/><rect x="181" y="216" width="7" height="7" transform="rotate(0,184.5,219.5)"/><path d="M 188 216v 7h 7a 7 7, 0, 0, 0, -7 -7" transform="rotate(90,191.5,219.5)"/><rect x="216" y="216" width="7" height="7" transform="rotate(0,219.5,219.5)"/><rect x="223" y="216" width="7" height="7" transform="rotate(0,226.5,219.5)"/><rect x="230" y="216" width="7" height="7" transform="rotate(0,233.5,219.5)"/><rect x="237" y="216" width="7" height="7" transform="rotate(0,240.5,219.5)"/><rect x="244" y="216" width="7" height="7" transform="rotate(0,247.5,219.5)"/><path d="M 265 216v 7h 7a 7 7, 0, 0, 0, -7 -7" transform="rotate(180,268.5,219.5)"/><path d="M 272 216v 7h 3.5a 3.5 3.5, 0, 0, 0, 0 -7" transform="rotate(0,275.5,219.5)"/><rect x="76" y="223" width="7" height="7" transform="rotate(0,79.5,226.5)"/><path d="M 83 223v 7h 7a 7 7, 0, 0, 0, -7 -7" transform="rotate(90,86.5,226.5)"/><rect x="97" y="223" width="7" height="7" transform="rotate(0,100.5,226.5)"/><rect x="104" y="223" width="7" height="7" transform="rotate(0,107.5,226.5)"/><path d="M 111 223v 7h 3.5a 3.5 3.5, 0, 0, 0, 0 -7" transform="rotate(0,114.5,226.5)"/><path d="M 153 223v 7h 3.5a 3.5 3.5, 0, 0, 0, 0 -7" transform="rotate(90,156.5,226.5)"/><rect x="167" y="223" width="7" height="7" transform="rotate(0,170.5,226.5)"/><rect x="174" y="223" width="7" height="7" transform="rotate(0,177.5,226.5)"/><rect x="181" y="223" width="7" height="7" transform="rotate(0,184.5,226.5)"/><rect x="216" y="223" width="7" height="7" transform="rotate(0,219.5,226.5)"/><rect x="244" y="223" width="7" height="7" transform="rotate(0,247.5,226.5)"/><path d="M 251 223v 7h 7a 7 7, 0, 0, 0, -7 -7" transform="rotate(0,254.5,226.5)"/><rect x="76" y="230" width="7" height="7" transform="rotate(0,79.5,233.5)"/><path d="M 90 230v 7h 7a 7 7, 0, 0, 0, -7 -7" transform="rotate(-90,93.5,233.5)"/><rect x="97" y="230" width="7" height="7" transform="rotate(0,100.5,233.5)"/><rect x="104" y="230" width="7" height="7" transform="rotate(0,107.5,233.5)"/><circle cx="128.5" cy="233.5" r="3.5" transform="rotate(0,128.5,233.5)"/><circle cx="149.5" cy="233.5" r="3.5" transform="rotate(0,149.5,233.5)"/><path d="M 160 230v 7h 7a 7 7, 0, 0, 0, -7 -7" transform="rotate(-90,163.5,233.5)"/><rect x="167" y="230" width="7" height="7" transform="rotate(0,170.5,233.5)"/><rect x="174" y="230" width="7" height="7" transform="rotate(0,177.5,233.5)"/><path d="M 181 230v 7h 7a 7 7, 0, 0, 0, -7 -7" transform="rotate(90,184.5,233.5)"/><circle cx="205.5" cy="233.5" r="3.5" transform="rotate(0,205.5,233.5)"/><rect x="216" y="230" width="7" height="7" transform="rotate(0,219.5,233.5)"/><circle cx="233.5" cy="233.5" r="3.5" transform="rotate(0,233.5,233.5)"/><rect x="244" y="230" width="7" height="7" transform="rotate(0,247.5,233.5)"/><rect x="251" y="230" width="7" height="7" transform="rotate(0,254.5,233.5)"/><path d="M 258 230v 7h 7a 7 7, 0, 0, 0, -7 -7" transform="rotate(0,261.5,233.5)"/><rect x="76" y="237" width="7" height="7" transform="rotate(0,79.5,240.5)"/><rect x="83" y="237" width="7" height="7" transform="rotate(0,86.5,240.5)"/><path d="M 90 237v 7h 7a 7 7, 0, 0, 0, -7 -7" transform="rotate(90,93.5,240.5)"/><rect x="104" y="237" width="7" height="7" transform="rotate(0,107.5,240.5)"/><rect x="111" y="237" width="7" height="7" transform="rotate(0,114.5,240.5)"/><path d="M 118 237v 7h 7a 7 7, 0, 0, 0, -7 -7" transform="rotate(0,121.5,240.5)"/><path d="M 132 237v 7h 7a 7 7, 0, 0, 0, -7 -7" transform="rotate(-90,135.5,240.5)"/><path d="M 139 237v 7h 3.5a 3.5 3.5, 0, 0, 0, 0 -7" transform="rotate(0,142.5,240.5)"/><path d="M 153 237v 7h 7a 7 7, 0, 0, 0, -7 -7" transform="rotate(-90,156.5,240.5)"/><rect x="160" y="237" width="7" height="7" transform="rotate(0,163.5,240.5)"/><rect x="167" y="237" width="7" height="7" transform="rotate(0,170.5,240.5)"/><path d="M 174 237v 7h 7a 7 7, 0, 0, 0, -7 -7" transform="rotate(90,177.5,240.5)"/><circle cx="191.5" cy="240.5" r="3.5" transform="rotate(0,191.5,240.5)"/><rect x="216" y="237" width="7" height="7" transform="rotate(0,219.5,240.5)"/><rect x="244" y="237" width="7" height="7" transform="rotate(0,247.5,240.5)"/><rect x="258" y="237" width="7" height="7" transform="rotate(0,261.5,240.5)"/><rect x="265" y="237" width="7" height="7" transform="rotate(0,268.5,240.5)"/><path d="M 272 237v 7h 7a 7 7, 0, 0, 0, -7 -7" transform="rotate(0,275.5,240.5)"/><path d="M 76 244v 7h 7a 7 7, 0, 0, 0, -7 -7" transform="rotate(180,79.5,247.5)"/><rect x="83" y="244" width="7" height="7" transform="rotate(0,86.5,247.5)"/><path d="M 104 244v 7h 3.5a 3.5 3.5, 0, 0, 0, 0 -7" transform="rotate(90,107.5,247.5)"/><path d="M 118 244v 7h 3.5a 3.5 3.5, 0, 0, 0, 0 -7" transform="rotate(90,121.5,247.5)"/><path d="M 132 244v 7h 3.5a 3.5 3.5, 0, 0, 0, 0 -7" transform="rotate(90,135.5,247.5)"/><rect x="153" y="244" width="7" height="7" transform="rotate(0,156.5,247.5)"/><path d="M 167 244v 7h 3.5a 3.5 3.5, 0, 0, 0, 0 -7" transform="rotate(90,170.5,247.5)"/><circle cx="184.5" cy="247.5" r="3.5" transform="rotate(0,184.5,247.5)"/><path d="M 216 244v 7h 7a 7 7, 0, 0, 0, -7 -7" transform="rotate(180,219.5,247.5)"/><rect x="223" y="244" width="7" height="7" transform="rotate(0,226.5,247.5)"/><rect x="230" y="244" width="7" height="7" transform="rotate(0,233.5,247.5)"/><rect x="237" y="244" width="7" height="7" transform="rotate(0,240.5,247.5)"/><rect x="244" y="244" width="7" height="7" transform="rotate(0,247.5,247.5)"/><rect x="251" y="244" width="7" height="7" transform="rotate(0,254.5,247.5)"/><rect x="258" y="244" width="7" height="7" transform="rotate(0,261.5,247.5)"/><path d="M 272 244v 7h 3.5a 3.5 3.5, 0, 0, 0, 0 -7" transform="rotate(90,275.5,247.5)"/><path d="M 83 251v 7h 3.5a 3.5 3.5, 0, 0, 0, 0 -7" transform="rotate(90,86.5,254.5)"/><circle cx="114.5" cy="254.5" r="3.5" transform="rotate(0,114.5,254.5)"/><circle cx="128.5" cy="254.5" r="3.5" transform="rotate(0,128.5,254.5)"/><path d="M 139 251v 7h 3.5a 3.5 3.5, 0, 0, 0, 0 -7" transform="rotate(180,142.5,254.5)"/><rect x="146" y="251" width="7" height="7" transform="rotate(0,149.5,254.5)"/><rect x="153" y="251" width="7" height="7" transform="rotate(0,156.5,254.5)"/><path d="M 188 251v 7h 3.5a 3.5 3.5, 0, 0, 0, 0 -7" transform="rotate(-90,191.5,254.5)"/><circle cx="205.5" cy="254.5" r="3.5" transform="rotate(0,205.5,254.5)"/><rect x="230" y="251" width="7" height="7" transform="rotate(0,233.5,254.5)"/><rect x="237" y="251" width="7" height="7" transform="rotate(0,240.5,254.5)"/><path d="M 251 251v 7h 7a 7 7, 0, 0, 0, -7 -7" transform="rotate(180,254.5,254.5)"/><rect x="258" y="251" width="7" height="7" transform="rotate(0,261.5,254.5)"/><path d="M 97 258v 7h 7a 7 7, 0, 0, 0, -7 -7" transform="rotate(-90,100.5,261.5)"/><path d="M 104 258v 7h 7a 7 7, 0, 0, 0, -7 -7" transform="rotate(0,107.5,261.5)"/><circle cx="121.5" cy="261.5" r="3.5" transform="rotate(0,121.5,261.5)"/><circle cx="135.5" cy="261.5" r="3.5" transform="rotate(0,135.5,261.5)"/><path d="M 153 258v 7h 3.5a 3.5 3.5, 0, 0, 0, 0 -7" transform="rotate(90,156.5,261.5)"/><path d="M 167 258v 7h 7a 7 7, 0, 0, 0, -7 -7" transform="rotate(-90,170.5,261.5)"/><rect x="174" y="258" width="7" height="7" transform="rotate(0,177.5,261.5)"/><rect x="181" y="258" width="7" height="7" transform="rotate(0,184.5,261.5)"/><path d="M 188 258v 7h 7a 7 7, 0, 0, 0, -7 -7" transform="rotate(90,191.5,261.5)"/><circle cx="219.5" cy="261.5" r="3.5" transform="rotate(0,219.5,261.5)"/><rect x="230" y="258" width="7" height="7" transform="rotate(0,233.5,261.5)"/><path d="M 237 258v 7h 7a 7 7, 0, 0, 0, -7 -7" transform="rotate(90,240.5,261.5)"/><rect x="258" y="258" width="7" height="7" transform="rotate(0,261.5,261.5)"/><path d="M 265 258v 7h 7a 7 7, 0, 0, 0, -7 -7" transform="rotate(0,268.5,261.5)"/><path d="M 90 265v 7h 3.5a 3.5 3.5, 0, 0, 0, 0 -7" transform="rotate(180,93.5,268.5)"/><rect x="97" y="265" width="7" height="7" transform="rotate(0,100.5,268.5)"/><rect x="104" y="265" width="7" height="7" transform="rotate(0,107.5,268.5)"/><path d="M 111 265v 7h 7a 7 7, 0, 0, 0, -7 -7" transform="rotate(0,114.5,268.5)"/><circle cx="128.5" cy="268.5" r="3.5" transform="rotate(0,128.5,268.5)"/><path d="M 139 265v 7h 3.5a 3.5 3.5, 0, 0, 0, 0 -7" transform="rotate(180,142.5,268.5)"/><path d="M 146 265v 7h 3.5a 3.5 3.5, 0, 0, 0, 0 -7" transform="rotate(0,149.5,268.5)"/><path d="M 160 265v 7h 3.5a 3.5 3.5, 0, 0, 0, 0 -7" transform="rotate(180,163.5,268.5)"/><rect x="167" y="265" width="7" height="7" transform="rotate(0,170.5,268.5)"/><path d="M 181 265v 7h 3.5a 3.5 3.5, 0, 0, 0, 0 -7" transform="rotate(90,184.5,268.5)"/><path d="M 202 265v 7h 7a 7 7, 0, 0, 0, -7 -7" transform="rotate(-90,205.5,268.5)"/><path d="M 209 265v 7h 7a 7 7, 0, 0, 0, -7 -7" transform="rotate(0,212.5,268.5)"/><rect x="230" y="265" width="7" height="7" transform="rotate(0,233.5,268.5)"/><circle cx="247.5" cy="268.5" r="3.5" transform="rotate(0,247.5,268.5)"/><rect x="258" y="265" width="7" height="7" transform="rotate(0,261.5,268.5)"/><rect x="265" y="265" width="7" height="7" transform="rotate(0,268.5,268.5)"/><path d="M 111 272v 7h 3.5a 3.5 3.5, 0, 0, 0, 0 -7" transform="rotate(90,114.5,275.5)"/><circle cx="135.5" cy="275.5" r="3.5" transform="rotate(0,135.5,275.5)"/><path d="M 167 272v 7h 3.5a 3.5 3.5, 0, 0, 0, 0 -7" transform="rotate(90,170.5,275.5)"/><circle cx="191.5" cy="275.5" r="3.5" transform="rotate(0,191.5,275.5)"/><path d="M 202 272v 7h 7a 7 7, 0, 0, 0, -7 -7" transform="rotate(180,205.5,275.5)"/><path d="M 209 272v 7h 7a 7 7, 0, 0, 0, -7 -7" transform="rotate(90,212.5,275.5)"/><path d="M 223 272v 7h 3.5a 3.5 3.5, 0, 0, 0, 0 -7" transform="rotate(180,226.5,275.5)"/><path d="M 230 272v 7h 7a 7 7, 0, 0, 0, -7 -7" transform="rotate(90,233.5,275.5)"/><path d="M 251 272v 7h 3.5a 3.5 3.5, 0, 0, 0, 0 -7" transform="rotate(180,254.5,275.5)"/><rect x="258" y="272" width="7" height="7" transform="rotate(0,261.5,275.5)"/><rect x="265" y="272" width="7" height="7" transform="rotate(0,268.5,275.5)"/><path d="M 272 272v 7h 3.5a 3.5 3.5, 0, 0, 0, 0 -7" transform="rotate(0,275.5,275.5)"/></clipPath><clipPath id="clip-path-corners-square-color-0-0-43"><path clip-rule="evenodd" d="M 20 37.5v 14a 17.5 17.5, 0, 0, 0, 17.5 17.5h 14a 17.5 17.5, 0, 0, 0, 17.5 -17.5v -14a 17.5 17.5, 0, 0, 0, -17.5 -17.5h -14a 17.5 17.5, 0, 0, 0, -17.5 17.5M 37.5 27h 14a 10.5 10.5, 0, 0, 1, 10.5 10.5v 14a 10.5 10.5, 0, 0, 1, -10.5 10.5h -14a 10.5 10.5, 0, 0, 1, -10.5 -10.5v -14a 10.5 10.5, 0, 0, 1, 10.5 -10.5" transform="rotate(0,44.5,44.5)"/></clipPath><clipPath id="clip-path-corners-dot-color-0-0-43"><path d="M 34 34v 7h 7a 7 7, 0, 0, 0, -7 -7" transform="rotate(-90,37.5,37.5)"/><rect x="41" y="34" width="7" height="7" transform="rotate(0,44.5,37.5)"/><path d="M 48 34v 7h 7a 7 7, 0, 0, 0, -7 -7" transform="rotate(0,51.5,37.5)"/><rect x="34" y="41" width="7" height="7" transform="rotate(0,37.5,44.5)"/><rect x="41" y="41" width="7" height="7" transform="rotate(0,44.5,44.5)"/><rect x="48" y="41" width="7" height="7" transform="rotate(0,51.5,44.5)"/><path d="M 34 48v 7h 7a 7 7, 0, 0, 0, -7 -7" transform="rotate(180,37.5,51.5)"/><rect x="41" y="48" width="7" height="7" transform="rotate(0,44.5,51.5)"/><path d="M 48 48v 7h 7a 7 7, 0, 0, 0, -7 -7" transform="rotate(90,51.5,51.5)"/></clipPath><clipPath id="clip-path-corners-square-color-1-0-43"><path clip-rule="evenodd" d="M 230 37.5v 14a 17.5 17.5, 0, 0, 0, 17.5 17.5h 14a 17.5 17.5, 0, 0, 0, 17.5 -17.5v -14a 17.5 17.5, 0, 0, 0, -17.5 -17.5h -14a 17.5 17.5, 0, 0, 0, -17.5 17.5M 247.5 27h 14a 10.5 10.5, 0, 0, 1, 10.5 10.5v 14a 10.5 10.5, 0, 0, 1, -10.5 10.5h -14a 10.5 10.5, 0, 0, 1, -10.5 -10.5v -14a 10.5 10.5, 0, 0, 1, 10.5 -10.5" transform="rotate(90,254.5,44.5)"/></clipPath><clipPath id="clip-path-corners-dot-color-1-0-43"><path d="M 244 34v 7h 7a 7 7, 0, 0, 0, -7 -7" transform="rotate(-90,247.5,37.5)"/><rect x="251" y="34" width="7" height="7" transform="rotate(0,254.5,37.5)"/><path d="M 258 34v 7h 7a 7 7, 0, 0, 0, -7 -7" transform="rotate(0,261.5,37.5)"/><rect x="244" y="41" width="7" height="7" transform="rotate(0,247.5,44.5)"/><rect x="251" y="41" width="7" height="7" transform="rotate(0,254.5,44.5)"/><rect x="258" y="41" width="7" height="7" transform="rotate(0,261.5,44.5)"/><path d="M 244 48v 7h 7a 7 7, 0, 0, 0, -7 -7" transform="rotate(180,247.5,51.5)"/><rect x="251" y="48" width="7" height="7" transform="rotate(0,254.5,51.5)"/><path d="M 258 48v 7h 7a 7 7, 0, 0, 0, -7 -7" transform="rotate(90,261.5,51.5)"/></clipPath><clipPath id="clip-path-corners-square-color-0-1-43"><path clip-rule="evenodd" d="M 20 247.5v 14a 17.5 17.5, 0, 0, 0, 17.5 17.5h 14a 17.5 17.5, 0, 0, 0, 17.5 -17.5v -14a 17.5 17.5, 0, 0, 0, -17.5 -17.5h -14a 17.5 17.5, 0, 0, 0, -17.5 17.5M 37.5 237h 14a 10.5 10.5, 0, 0, 1, 10.5 10.5v 14a 10.5 10.5, 0, 0, 1, -10.5 10.5h -14a 10.5 10.5, 0, 0, 1, -10.5 -10.5v -14a 10.5 10.5, 0, 0, 1, 10.5 -10.5" transform="rotate(-90,44.5,254.5)"/></clipPath><clipPath id="clip-path-corners-dot-color-0-1-43"><path d="M 34 244v 7h 7a 7 7, 0, 0, 0, -7 -7" transform="rotate(-90,37.5,247.5)"/><rect x="41" y="244" width="7" height="7" transform="rotate(0,44.5,247.5)"/><path d="M 48 244v 7h 7a 7 7, 0, 0, 0, -7 -7" transform="rotate(0,51.5,247.5)"/><rect x="34" y="251" width="7" height="7" transform="rotate(0,37.5,254.5)"/><rect x="41" y="251" width="7" height="7" transform="rotate(0,44.5,254.5)"/><rect x="48" y="251" width="7" height="7" transform="rotate(0,51.5,254.5)"/><path d="M 34 258v 7h 7a 7 7, 0, 0, 0, -7 -7" transform="rotate(180,37.5,261.5)"/><rect x="41" y="258" width="7" height="7" transform="rotate(0,44.5,261.5)"/><path d="M 48 258v 7h 7a 7 7, 0, 0, 0, -7 -7" transform="rotate(90,51.5,261.5)"/></clipPath></defs><rect x="0" y="0" height="300" width="300" clip-path="url('#clip-path-dot-color-43')" fill="#ffffff"/><rect x="20" y="20" height="49" width="49" clip-path="url('#clip-path-corners-square-color-0-0-43')" fill="#ffffff"/><rect x="34" y="34" height="21" width="21" clip-path="url('#clip-path-corners-dot-color-0-0-43')" fill="#ffffff"/><rect x="230" y="20" height="49" width="49" clip-path="url('#clip-path-corners-square-color-1-0-43')" fill="#ffffff"/><rect x="244" y="34" height="21" width="21" clip-path="url('#clip-path-corners-dot-color-1-0-43')" fill="#ffffff"/><rect x="20" y="230" height="49" width="49" clip-path="url('#clip-path-corners-square-color-0-1-43')" fill="#ffffff"/><rect x="34" y="244" height="21" width="21" clip-path="url('#clip-path-corners-dot-color-0-1-43')" fill="#ffffff"/></svg>